<?xml version="1.0" standalone="no"?>
<!DOCTYPE svg PUBLIC "-//W3C//DTD SVG 20010904//EN"
 "http://www.w3.org/TR/2001/REC-SVG-20010904/DTD/svg10.dtd">
<svg version="1.0" xmlns="http://www.w3.org/2000/svg"
 width="700.000000pt" height="700.000000pt" viewBox="0 0 700.000000 700.000000"
 preserveAspectRatio="xMidYMid meet">
<metadata>
Created by potrace 1.14, written by Peter Selinger 2001-2017
</metadata>
<g transform="translate(0.000000,700.000000) scale(0.100000,-0.100000)"
fill="#000000" stroke="none">
<path d="M873 6885 c-277 -50 -521 -224 -657 -468 -46 -81 -92 -222 -106 -322
-8 -58 -10 -797 -8 -2650 l3 -2570 23 -80 c98 -334 342 -577 674 -667 l83 -23
2615 0 2615 0 84 23 c333 91 582 340 673 673 l23 84 0 2610 c0 2443 -1 2614
-17 2677 -47 182 -130 331 -253 453 -120 120 -254 197 -433 248 l-77 22 -2585
2 c-2089 1 -2599 -1 -2657 -12z m3325 -462 c101 -75 97 -210 -8 -281 -29 -20
-44 -23 -93 -20 -99 7 -152 63 -152 162 0 52 4 68 27 98 15 19 42 42 60 52 44
22 129 17 166 -11z m2298 1 c62 -46 89 -114 72 -181 -11 -46 -34 -75 -79 -102
-34 -21 -41 -21 -944 -21 -903 0 -910 0 -944 21 -94 57 -113 167 -44 250 52
61 4 59 1000 56 903 -2 912 -2 939 -23z m-5319 -26 c22 -15 51 -44 64 -65 24
-38 24 -39 27 -402 l3 -364 -25 -51 c-27 -54 -70 -90 -127 -106 -48 -14 -544
-13 -594 1 -52 15 -119 82 -134 134 -14 53 -15 685 0 738 13 49 63 105 114
129 36 17 66 18 336 16 l296 -3 40 -27z m1084 -3 c23 -16 53 -50 66 -74 21
-41 23 -55 23 -215 0 -145 -3 -177 -19 -211 -22 -47 -64 -89 -104 -104 -18 -7
-139 -11 -323 -11 -275 0 -297 1 -334 20 -47 24 -84 71 -99 125 -14 51 -14
308 0 358 13 49 63 105 114 129 37 17 66 18 337 16 l296 -3 43 -30z m886 -101
c360 -189 704 -502 905 -827 71 -113 150 -282 188 -402 51 -162 70 -275 81
-480 22 -455 58 -626 164 -786 132 -197 323 -219 437 -49 65 97 105 292 91
441 -3 37 -3 78 0 91 8 31 45 48 101 48 96 0 397 -228 581 -440 326 -375 568
-875 631 -1303 24 -160 15 -413 -19 -557 -105 -443 -378 -789 -837 -1060 -235
-139 -624 -300 -726 -300 -43 0 -94 30 -94 55 0 8 26 44 58 82 105 123 162
222 204 353 20 66 23 94 22 230 0 139 -3 164 -28 245 -97 317 -290 573 -736
972 -308 276 -600 660 -765 1005 l-51 108 -146 -183 c-279 -350 -586 -757
-945 -1252 -236 -325 -317 -505 -330 -732 -15 -262 87 -512 302 -742 41 -44
75 -85 75 -91 0 -6 -11 -22 -25 -35 -38 -38 -92 -33 -242 22 -273 100 -593
281 -793 449 -114 95 -292 282 -363 381 -152 213 -227 446 -227 707 0 221 47
411 156 633 136 278 354 544 694 846 338 300 540 507 738 755 111 139 277 387
356 530 218 397 329 811 313 1169 -5 123 -5 123 20 143 45 35 107 27 210 -26z
m1456 -618 c69 -28 114 -116 98 -188 -19 -81 -80 -128 -169 -128 -63 0 -109
30 -139 90 -29 56 -29 96 0 150 40 75 132 109 210 76z m1900 -19 c47 -36 69
-78 69 -132 0 -55 -26 -109 -66 -138 l-31 -22 -706 -3 -705 -2 -34 23 c-54 36
-80 82 -80 142 0 66 29 112 90 143 l45 22 691 -2 691 -3 36 -28z m-4263 -89
c62 -32 99 -83 106 -144 l5 -49 -130 -190 c-190 -278 -372 -498 -485 -587 -49
-39 -53 -40 -107 -35 -98 9 -144 45 -160 128 -12 64 -11 716 1 761 14 50 55
97 105 119 36 17 70 19 330 19 282 0 292 -1 335 -22z m-1063 -380 c22 -15 51
-44 64 -65 23 -36 24 -49 27 -218 3 -171 2 -182 -20 -224 -13 -25 -40 -59 -61
-75 l-39 -31 -309 -3 c-293 -3 -310 -2 -348 18 -92 47 -114 114 -109 331 3
142 5 157 27 197 26 44 55 69 106 89 21 9 115 11 326 10 l296 -2 40 -27z
m3859 -277 c101 -46 131 -168 63 -255 -62 -78 -196 -78 -258 0 -69 88 -39 209
63 255 52 23 80 23 132 0z m1444 -3 c60 -31 90 -77 90 -140 0 -66 -24 -114
-73 -146 l-41 -27 -430 -3 c-237 -2 -454 0 -483 3 -94 11 -154 70 -160 157 -5
69 24 122 86 155 l44 23 461 0 c459 0 462 0 506 -22z m-2800 -2570 c55 -28 87
-74 95 -136 9 -66 23 -99 56 -126 45 -38 94 -41 173 -12 76 29 94 31 151 15
53 -15 90 -55 159 -171 50 -84 58 -105 58 -148 0 -61 -22 -99 -88 -149 -61
-45 -89 -98 -79 -148 6 -36 36 -70 104 -121 64 -49 81 -134 41 -212 -33 -66
-105 -173 -131 -197 -52 -47 -137 -57 -210 -23 -82 37 -170 18 -208 -44 -10
-17 -22 -56 -25 -86 -9 -66 -37 -111 -91 -142 -37 -21 -52 -23 -185 -23 -139
0 -147 1 -191 27 -52 31 -75 69 -88 150 -12 70 -32 101 -76 122 -44 21 -101
20 -154 -4 -79 -36 -169 -22 -223 36 -36 40 -126 190 -137 230 -19 68 9 128
83 183 113 84 109 188 -9 261 -50 31 -77 81 -77 141 0 42 8 63 58 147 69 116
106 156 159 171 57 16 75 14 151 -15 132 -50 210 -3 229 138 8 62 40 108 95
136 39 20 59 22 180 22 121 0 141 -2 180 -22z"/>
<path d="M3402 1731 c-59 -20 -123 -76 -152 -131 -61 -119 -15 -265 108 -338
42 -24 56 -27 142 -27 86 0 100 3 142 27 123 73 169 218 107 339 -27 53 -103
117 -162 134 -66 20 -120 18 -185 -4z"/>
</g>
</svg>
